# xmcd CD database file
#
# Track frame offsets:
#	150
#	19759
#	39006
#	58986
#	77692
#	98265
#	122358
#	139455
#	157283
#	173981
#	189438
#	207329
#	228087
#
# Disc length: 3308 seconds
#
# Revision: 0
# Processed by: cddbd v1.5.2PL0 Copyright (c) Steve Scherf et al.
# Submitted via: CDex 1.70beta2
#
DISCID=a30cea0d
DTITLE=Select Mix - Select Mix - Country Essentials Volume 1
DYEAR=2007
DGENRE=Country
TTITLE0=Carrie Underwood - Before He Cheats (BPM 74)
TTITLE1=The Wreckers - Leave The Pieces  (BPM 82)
TTITLE2=Brad Paisley - Ticks (BPM 94)
TTITLE3=Craig Morgan - A Little Bit of Life (BPM 97)
TTITLE4=Tim McGraw - Last Dollar (BPM 104)
TTITLE5=Keith Urban - I Told You So (BPM 106)
TTITLE6=Gary Allan - Nothin' On But The Radio (BPM 109)
TTITLE7=Jason Aldean - Johnny Cash (BPM 112)
TTITLE8=Gretchen Wilson - Here For The Party (BPM 124)
TTITLE9=Tracy Byrd - Ten Rounds (With Jose Cuervo) (BPM 127)
TTITLE10=Kenny Chesney - Beer In Mexico (BPM 138)
TTITLE11=Rodney Atkins - Watching You (BPM 138)
TTITLE12=Dierks Bentley - What Was I Thinkin' (BPM 165)
EXTD=YEAR: 2007
EXTT0=
EXTT1=
EXTT2=
EXTT3=
EXTT4=
EXTT5=
EXTT6=
EXTT7=
EXTT8=
EXTT9=
EXTT10=
EXTT11=
EXTT12=
PLAYORDER=
